<mxfile host="65bd71144e" scale="1.25" border="0">
    <diagram id="V_oXI-Thrw-SmrUAFXe6" name="第 1 页">
        <mxGraphModel dx="781" dy="442" grid="1" gridSize="10" guides="1" tooltips="1" connect="1" arrows="1" fold="1" page="1" pageScale="1" pageWidth="192000" pageHeight="108000" math="0" shadow="0">
            <root>
                <mxCell id="0"/>
                <mxCell id="1" parent="0"/>
                <mxCell id="27" value="开始" style="rounded=1;whiteSpace=wrap;html=1;fillColor=none;fontSize=16;fontFamily=宋体;" vertex="1" parent="1">
                    <mxGeometry x="370" y="80" width="102" height="44" as="geometry"/>
                </mxCell>
                <mxCell id="35" value="" style="edgeStyle=none;html=1;fontFamily=宋体;fontSize=12;" edge="1" parent="1" source="30" target="34">
                    <mxGeometry relative="1" as="geometry"/>
                </mxCell>
                <mxCell id="30" value="登录" style="rounded=0;whiteSpace=wrap;html=1;fontFamily=宋体;fontSize=12;fillColor=none;" vertex="1" parent="1">
                    <mxGeometry x="370" y="160" width="102" height="44" as="geometry"/>
                </mxCell>
                <mxCell id="37" value="" style="edgeStyle=none;html=1;fontFamily=宋体;fontSize=12;" edge="1" parent="1" source="34" target="36">
                    <mxGeometry relative="1" as="geometry"/>
                </mxCell>
                <mxCell id="34" value="登录成功" style="rhombus;whiteSpace=wrap;html=1;fontFamily=宋体;fillColor=none;rounded=0;" vertex="1" parent="1">
                    <mxGeometry x="370" y="240" width="100" height="60" as="geometry"/>
                </mxCell>
                <mxCell id="39" value="" style="edgeStyle=none;html=1;fontFamily=宋体;fontSize=12;" edge="1" parent="1" source="36" target="38">
                    <mxGeometry relative="1" as="geometry"/>
                </mxCell>
                <mxCell id="36" value="进入就业形势分析" style="whiteSpace=wrap;html=1;fontFamily=宋体;fillColor=none;rounded=0;" vertex="1" parent="1">
                    <mxGeometry x="361" y="320" width="120" height="60" as="geometry"/>
                </mxCell>
                <mxCell id="38" value="用户" style="whiteSpace=wrap;html=1;fontFamily=宋体;fillColor=none;rounded=0;" vertex="1" parent="1">
                    <mxGeometry x="361" y="460" width="120" height="60" as="geometry"/>
                </mxCell>
            </root>
        </mxGraphModel>
    </diagram>
</mxfile>